<?xml version="1.0" standalone="no"?>
<svg version="1.0" xmlns="http://www.w3.org/2000/svg"
 width="225.000000pt" height="225.000000pt" viewBox="0 0 225.000000 225.000000"
 preserveAspectRatio="xMidYMid meet">

<g transform="translate(0.000000,225.000000) scale(0.100000,-0.100000)"
fill="#0155FF" stroke="none">
<path d="M0 1125 l0 -1125 1125 0 1125 0 0 1125 0 1125 -1125 0 -1125 0 0
-1125z m1160 492 c77 -29 141 -86 178 -157 31 -59 34 -71 30 -130 -6 -75 -31
-130 -82 -179 l-35 -34 43 -27 c153 -97 173 -304 43 -438 -103 -107 -168 -122
-524 -122 l-263 0 0 556 0 555 283 -3 c235 -3 289 -7 327 -21z m710 -127 l0
-150 -150 0 -150 0 0 150 0 150 150 0 150 0 0 -150z"/>
<path d="M790 1325 l0 -115 135 0 c133 0 135 0 166 28 65 58 43 169 -38 191
-21 6 -89 11 -150 11 l-113 0 0 -115z"/>
<path d="M790 874 l0 -135 161 3 161 3 34 37 c30 33 34 44 34 92 0 39 -6 60
-21 80 -39 49 -66 56 -224 56 l-145 0 0 -136z"/>
</g>
</svg>
